<svg xmlns="http://www.w3.org/2000/svg" xmlns:xlink="http://www.w3.org/1999/xlink" width="500" zoomAndPan="magnify" viewBox="0 0 375 374.999991" height="500" preserveAspectRatio="xMidYMid meet" version="1.0"><defs><g/></defs><g fill="#dc0469" fill-opacity="1"><g transform="translate(21.74589, 245.421189)"><g><path d="M 72.5625 3.6875 C 60.28125 3.6875 49.378906 0.925781 39.859375 -4.59375 C 30.347656 -10.125 22.859375 -17.953125 17.390625 -28.078125 C 11.929688 -38.210938 9.203125 -50.21875 9.203125 -64.09375 C 9.203125 -73.300781 10.984375 -81.925781 14.546875 -89.96875 C 18.109375 -98.007812 22.988281 -105.128906 29.1875 -111.328125 C 35.382812 -117.523438 42.566406 -122.375 50.734375 -125.875 C 58.898438 -129.375 67.648438 -131.125 76.984375 -131.125 C 83.367188 -131.125 89.628906 -130.171875 95.765625 -128.265625 C 101.910156 -126.367188 107.007812 -123.425781 111.0625 -119.4375 C 115.113281 -115.445312 117.140625 -110.320312 117.140625 -104.0625 C 117.140625 -97.300781 115.050781 -91.066406 110.875 -85.359375 C 106.695312 -79.648438 101.015625 -74.675781 93.828125 -70.4375 C 86.648438 -66.207031 78.546875 -62.925781 69.515625 -60.59375 C 60.492188 -58.257812 51.070312 -57.09375 41.25 -57.09375 C 40.019531 -57.09375 38.882812 -57.09375 37.84375 -57.09375 C 36.800781 -57.09375 35.789062 -57.09375 34.8125 -57.09375 C 31.988281 -57.21875 29.835938 -56.476562 28.359375 -54.875 C 26.890625 -53.28125 26.398438 -51.195312 26.890625 -48.625 C 29.835938 -34.007812 35.609375 -22.554688 44.203125 -14.265625 C 52.796875 -5.984375 63.660156 -1.84375 76.796875 -1.84375 C 86.992188 -1.84375 95.40625 -4.390625 102.03125 -9.484375 C 108.65625 -14.578125 113.503906 -20.5625 116.578125 -27.4375 L 120.453125 -25.234375 C 116.273438 -16.390625 110.347656 -9.359375 102.671875 -4.140625 C 95.003906 1.078125 84.96875 3.6875 72.5625 3.6875 Z M 25.046875 -69.609375 C 24.921875 -67.523438 25.503906 -65.59375 26.796875 -63.8125 C 28.085938 -62.03125 29.710938 -61.019531 31.671875 -60.78125 C 33.023438 -60.65625 34.46875 -60.5 36 -60.3125 C 37.539062 -60.132812 39.234375 -60.046875 41.078125 -60.046875 C 45.859375 -60.046875 51.039062 -60.6875 56.625 -61.96875 C 62.21875 -63.257812 67.679688 -65.132812 73.015625 -67.59375 C 78.359375 -70.050781 83.238281 -73.023438 87.65625 -76.515625 C 92.082031 -80.015625 95.613281 -83.972656 98.25 -88.390625 C 100.894531 -92.816406 102.21875 -97.609375 102.21875 -102.765625 C 102.21875 -108.046875 100.988281 -112.523438 98.53125 -116.203125 C 96.070312 -119.890625 92.878906 -122.6875 88.953125 -124.59375 C 85.023438 -126.5 80.789062 -127.453125 76.25 -127.453125 C 68.269531 -127.453125 61.144531 -125.820312 54.875 -122.5625 C 48.613281 -119.3125 43.304688 -114.953125 38.953125 -109.484375 C 34.597656 -104.023438 31.253906 -97.859375 28.921875 -90.984375 C 26.585938 -84.109375 25.296875 -76.984375 25.046875 -69.609375 Z M 25.046875 -69.609375 "/></g></g></g><g fill="#dc0469" fill-opacity="1"><g transform="translate(134.450777, 245.421189)"><g><path d="M 27.625 0 L 12.890625 0 L 12.890625 -184.171875 L 27.625 -184.171875 Z M 27.625 0 "/></g></g></g><g fill="#dc0469" fill-opacity="1"><g transform="translate(160.784516, 245.421189)"><g><path d="M 27.625 0 L 12.890625 0 L 12.890625 -184.171875 L 27.625 -184.171875 Z M 27.625 0 "/></g></g></g><g fill="#dc0469" fill-opacity="1"><g transform="translate(187.118255, 245.421189)"><g><path d="M 9.765625 -29.46875 C 9.765625 -38.0625 11.539062 -45.210938 15.09375 -50.921875 C 18.65625 -56.628906 23.351562 -61.296875 29.1875 -64.921875 C 35.019531 -68.546875 41.40625 -71.429688 48.34375 -73.578125 C 55.28125 -75.722656 62.21875 -77.46875 69.15625 -78.8125 C 76.09375 -80.164062 82.476562 -81.519531 88.3125 -82.875 C 94.144531 -84.226562 98.835938 -85.882812 102.390625 -87.84375 C 105.953125 -89.8125 107.734375 -92.453125 107.734375 -95.765625 C 107.734375 -103.015625 106.289062 -108.753906 103.40625 -112.984375 C 100.519531 -117.222656 96.988281 -120.351562 92.8125 -122.375 C 88.644531 -124.40625 84.441406 -125.757812 80.203125 -126.4375 C 75.972656 -127.113281 72.566406 -127.453125 69.984375 -127.453125 C 62.859375 -127.453125 57.238281 -126.375 53.125 -124.21875 C 49.019531 -122.070312 45.800781 -119.429688 43.46875 -116.296875 C 41.132812 -113.171875 39.226562 -110.039062 37.75 -106.90625 C 36.28125 -103.78125 34.6875 -101.140625 32.96875 -98.984375 C 31.25 -96.835938 28.914062 -95.765625 25.96875 -95.765625 C 24.125 -95.765625 22.648438 -96.5 21.546875 -97.96875 C 20.441406 -99.445312 19.890625 -101.234375 19.890625 -103.328125 C 19.890625 -107.128906 21.300781 -110.71875 24.125 -114.09375 C 26.945312 -117.46875 30.628906 -120.410156 35.171875 -122.921875 C 39.710938 -125.441406 44.742188 -127.4375 50.265625 -128.90625 C 55.796875 -130.382812 61.203125 -131.125 66.484375 -131.125 C 78.515625 -131.125 88.703125 -129.066406 97.046875 -124.953125 C 105.398438 -120.847656 111.722656 -115.382812 116.015625 -108.5625 C 120.316406 -101.75 122.46875 -94.351562 122.46875 -86.375 L 122.46875 0 L 107.734375 0 L 107.734375 -16.578125 C 107.734375 -19.890625 106.875 -21.546875 105.15625 -21.546875 C 103.8125 -21.546875 102.398438 -20.867188 100.921875 -19.515625 C 96.378906 -15.710938 91.4375 -12.03125 86.09375 -8.46875 C 80.757812 -4.90625 75.113281 -1.988281 69.15625 0.28125 C 63.195312 2.550781 56.96875 3.6875 50.46875 3.6875 C 42.363281 3.6875 35.238281 2.273438 29.09375 -0.546875 C 22.957031 -3.367188 18.203125 -7.296875 14.828125 -12.328125 C 11.453125 -17.367188 9.765625 -23.082031 9.765625 -29.46875 Z M 67.21875 -75.328125 C 59.488281 -73.972656 52.519531 -71.300781 46.3125 -67.3125 C 40.113281 -63.320312 35.234375 -58.378906 31.671875 -52.484375 C 28.117188 -46.597656 26.34375 -40.03125 26.34375 -32.78125 C 26.34375 -26.03125 27.8125 -20.503906 30.75 -16.203125 C 33.695312 -11.910156 37.535156 -8.71875 42.265625 -6.625 C 46.992188 -4.539062 51.9375 -3.5 57.09375 -3.5 C 63.226562 -3.5 69.054688 -4.539062 74.578125 -6.625 C 80.109375 -8.71875 85.238281 -11.484375 89.96875 -14.921875 C 94.695312 -18.359375 98.78125 -22.039062 102.21875 -25.96875 C 103.9375 -27.8125 105.285156 -30.265625 106.265625 -33.328125 C 107.242188 -36.398438 107.734375 -39.472656 107.734375 -42.546875 L 107.734375 -75.515625 C 107.734375 -78.210938 106.96875 -80.113281 105.4375 -81.21875 C 103.90625 -82.320312 101.785156 -82.503906 99.078125 -81.765625 C 94.296875 -80.421875 89.328125 -79.285156 84.171875 -78.359375 C 79.015625 -77.441406 73.363281 -76.429688 67.21875 -75.328125 Z M 67.21875 -75.328125 "/></g></g></g><g fill="#dc0469" fill-opacity="1"><g transform="translate(308.294509, 245.421189)"><g><path d="M 22.46875 0 C 19.28125 0 16.882812 -0.976562 15.28125 -2.9375 C 13.6875 -4.90625 12.890625 -7.144531 12.890625 -9.65625 C 12.890625 -12.175781 13.6875 -14.421875 15.28125 -16.390625 C 16.882812 -18.359375 19.28125 -19.34375 22.46875 -19.34375 C 25.65625 -19.34375 28.078125 -18.359375 29.734375 -16.390625 C 31.398438 -14.421875 32.234375 -12.175781 32.234375 -9.65625 C 32.234375 -7.144531 31.398438 -4.90625 29.734375 -2.9375 C 28.078125 -0.976562 25.65625 0 22.46875 0 Z M 22.46875 0 "/></g></g></g></svg>